PathFileType	4	(X/Y/Z)	C:/Users/beibeiliu/ov580/test_trc\sequence.13_training_dense_left.trc
DataRate	CameraRate	NumFrames	NumMarkers	Units	OrigDataRate	OrigDataStartFrame	OrigNumFrames
120	120	18	19	mm	120	53	79
Frame#	Time	ThumbCMC			ThumbMCP			ThumbIP			ThumbTip			IndexMCP			IndexPIP			IndexTip			MiddleMCP			MiddlePIP			MiddleTip			RingMCP			RingPIP			RingTip			PinkyMCP			PinkyPIP			PinkyTip			BackHand1			BackHand2			BackHand3	
		X0	Y0	Z0	X1	Y1	Z1	X2	Y2	Z2	X3	Y3	Z3	X4	Y4	Z4	X5	Y5	Z5	X6	Y6	Z6	X7	Y7	Z7	X8	Y8	Z8	X9	Y9	Z9	X10	Y10	Z10	X11	Y11	Z11	X12	Y12	Z12	X13	Y13	Z13	X14	Y14	Z14	X15	Y15	Z15	X16	Y16	Z16	X17	Y17	Z17	X18	Y18	Z18	
52	0.433333	-211.588	68.9098	47.1171	-199.579	96.8169	37.6535	-170.739	103.086	23.6498	-148.211	93.4113	27.7789	-183.033	83.848	-9.14173	-174.483	98.2947	-23.2927	-165.149	111.936	-39.7918	-158.916	78.7338	-10.3198	-152.007	92.1963	-21.9974	-137.112	109.583	-36.7397	-146.06	68.8287	6.51935	-135.786	86.1163	-6.9145	-121.695	98.4416	-16.9593	-135.37	68.5634	27.5699	-140.631	91.8412	37.7873	-163.264	88.2966	52.5001	-172.781	40.9758	29.3002	-184.594	23.0253	50.3239	-201.589	44.4349	27.9215	
53	0.441667	-215.713	71.1982	42.1716	-206.832	93.9378	15.0652	-186.405	100.278	-1.8956	-162.893	96.0235	-0.705013	-199.049	64.427	-21.456	-196.857	72.9164	-44.8004	-195.406	80.4874	-63.1727	-177.512	62.273	-27.3142	-168.621	69.6546	-48.5947	-158.56	79.9339	-68.5064	-161.017	64.0757	-14.7303	-151.123	73.2124	-30.9182	-146.524	81.0038	-47.8572	-146.281	72.9607	3.73684	-152.867	97.4822	5.68213	-169.762	96.1538	24.5486	-170.404	40.3277	28.8072	-178.157	33.9015	50.0835	-202.129	41.9355	28.1016	
54	0.45	-219.616	68.0343	30.8169	-212.945	84.0099	5.01927	-196.068	84.4058	-17.1415	-172.488	78.3584	-19.2665	-214.817	40.1672	-24.3353	-217.049	38.4915	-51.706	-217.696	40.7644	-69.9714	-190.488	31.8108	-27.7661	-189.729	30.2243	-55.1459	-184.094	31.1703	-80.097	-171.79	37.1837	-19.9687	-166.005	37.4179	-45.1837	-166.182	40.866	-63.8603	-157.053	54.9986	-13.0454	-161.568	77.9431	-16.2062	-175.665	82.8864	4.00743	-179.198	31.7648	23.566	-181.024	34.7108	50.1675	-209.065	37.8307	30.7619	
55	0.458333	-218.163	72.0385	31.286	-211.128	82.5928	-1.37817	-197.146	74.0171	-18.8841	-175.024	61.3484	-28.2311	-231.382	35.6697	-16.6128	-237.01	30.4411	-42.0101	-241.018	27.4018	-63.5602	-216.366	19.8427	-20.686	-220.19	9.9269	-45.2682	-215.499	2.29287	-66.4254	-196.918	20.4982	-14.8163	-193.91	11.3317	-42.8949	-194.121	10.3753	-60.5536	-171.17	31.1508	-14.2928	-170.542	52.662	-24.7878	-176.358	70.2857	-1.58806	-197.028	27.3627	26.7999	-196.432	32.153	50.1931	-219.961	39.0448	38.5052	
56	0.466667	-216.398	78.5904	31.4756	-207.438	84.4419	-1.14547	-198.288	70.9454	-21.7779	-182.617	51.079	-27.5375	-247.147	45.016	-11.1219	-255.273	41.4312	-32.503	-262.165	38.0896	-51.5	-237.459	21.7358	-12.2873	-244.712	10.0988	-33.8195	-248.544	-2.26758	-55.2264	-216.647	16.9567	-7.13959	-221.105	4.62179	-32.9145	-226.448	1.49844	-52.869	-191.896	19.5668	-7.00974	-182.717	35.691	-23.9599	-178.9	58.2436	-6.63994	-210	23.1139	29.5499	-203.663	31.7345	58.1934	-227.427	49.315	39.7284	
57	0.475	-206.935	82.8445	37.6092	-201.613	84.9485	4.28255	-199.493	65.0676	-15.5787	-192.582	44.6031	-19.9593	-253.443	60.9046	-7.13597	-262.925	56.4332	-26.0391	-273.738	56.2475	-45.0707	-250.99	33.8211	-3.2699	-262.485	26.5078	-18.9597	-277.202	14.1683	-41.8854	-236.95	22.0682	-2.94508	-246.845	14.2516	-21.2479	-252.52	9.5058	-37.831	-208.007	16.7897	-3.96091	-192.579	30.4493	-21.5019	-183.014	50.5212	-9.57028	-218.294	30.4719	36.4126	-212.379	39.7201	60.5342	-227.457	57.9175	47.5853	
58	0.483333	-198.704	88.3157	38.3381	-195.405	84.9249	4.69215	-198.091	69.8266	-14.1552	-199.69	42.6175	-19.3132	-250.632	75.5654	-0.491035	-262.613	75.4082	-19.5229	-277.596	76.6173	-40.6604	-254.777	49.9789	1.99249	-274.722	46.0187	-17.4379	-292.463	40.2752	-32.6667	-244.374	33.716	3.76107	-259.327	27.5411	-16.0978	-268.978	25.7008	-30.2669	-221.236	20.3899	-2.48569	-207.547	30.3933	-20.5474	-189.863	47.9396	-7.27223	-227.291	41.4416	37.1111	-213.056	42.0002	62.6897	-226.293	65.1992	48.9376	
59	0.491667	-188.995	86.6867	39.4415	-188.574	83.5631	4.96436	-196.875	69.5173	-13.6519	-205.475	44.8748	-16.16	-246.406	92.7618	-1.3257	-257.689	98.4607	-19.9392	-268.003	98.1889	-34.1394	-258.224	66.3856	1.91797	-272.946	69.8148	-11.7072	-292.948	65.7984	-27.1862	-252.326	47.7631	2.7065	-267.068	49.1281	-15.2851	-281.866	46.6146	-30.2413	-230.97	29.2056	0.28019	-212.632	34.3879	-20.1926	-197.353	45.0829	-8.82037	-228.914	44.0655	41.7649	-217.83	44.2857	63.1636	-221.637	75.6288	50.3321	
60	0.5	-181.201	82.7832	38.7953	-181.928	81.4586	5.23425	-196.799	70.3734	-17.8477	-210.313	51.7025	-17.9284	-230.954	102.304	1.95918	-243.176	111.384	-16.92	-256.343	120.256	-37.0732	-249.498	89.0503	1.03236	-264.308	92.7011	-12.8864	-285.769	103.236	-28.4861	-251.721	65.6954	1.33376	-266.324	69.1554	-16.2831	-276.717	75.8098	-29.9228	-238.092	43.5848	-3.09319	-222.065	39.8301	-21.9681	-198.573	43.497	-12.3437	-232.576	58.6297	36.3458	-218.622	52.213	62.1773	-216.512	76.3532	48.004	
61	0.508333	-174.398	78.4925	34.702	-172.889	77.2267	0.975634	-187.65	71.4007	-19.7213	-211.392	55.837	-25.2762	-216.159	110.091	-3.1301	-223.679	123.731	-22.6089	-227.851	137.698	-39.9021	-237.008	103.817	-6.41821	-250.679	113.694	-21.8475	-264.823	127.424	-35.063	-245.454	79.741	-4.51545	-254.913	91.4359	-22.4854	-267.313	98.5094	-37.7172	-240.579	54.0651	-10.5367	-221.022	48.0426	-25.8558	-200.797	47.003	-12.3541	-231.567	69.1639	31.0048	-221.283	61.4025	54.7789	-206.439	86.966	46.6129	
62	0.516667	-169.194	72.7857	32.4741	-169.078	71.9009	-3.17366	-182.589	68.3994	-19.9044	-209.906	60.4298	-25.5097	-197.677	116.095	-12.2586	-199.353	127.566	-28.892	-203.683	140.6	-50.2136	-220.366	111.149	-12.6093	-228.788	126.51	-31.0177	-242.507	138.425	-43.6966	-235.309	93.8887	-12.8256	-239.114	104.938	-29.0114	-249.083	115.189	-47.1261	-236.958	67.0155	-13.6503	-221.488	53.2533	-28.9273	-200.596	44.6263	-13.7604	-223.463	80.9002	31.3134	-216.617	72.3554	51.574	-198.773	90.1436	39.7197	
63	0.525	-165.403	68.2963	30.2555	-161.981	63.4144	-3.01556	-177.927	63.2268	-21.6002	-204.479	60.1215	-26.1138	-178.939	110.996	-18.2417	-177.562	122.584	-39.0557	-175.494	134.507	-57.6004	-205.314	113.094	-21.3251	-207.797	124.721	-37.697	-214.041	141.353	-55.601	-220.33	98.5115	-16.0406	-223.54	109.551	-37.8224	-230.513	118.092	-53.7596	-228.844	76.457	-14.812	-220.27	56.4831	-30.6006	-199.126	47.944	-14.8	-213.26	88.8781	25.1578	-215.658	80.7368	50.5917	-187.976	94.8506	34.1805	
64	0.533333	-161.344	65.0748	30.3835	-154.992	52.9081	0.00620168	-172.666	55.6835	-25.2989	-196.898	55.1258	-25.6211	-165.777	104.718	-22.5927	-161.058	113.679	-43.0722	-155.523	121.125	-58.2916	-188.335	109.686	-23.9932	-192.648	120.93	-44.525	-197.148	135.862	-61.5872	-210.947	99.4792	-21.0018	-211.304	106.507	-40.1084	-213.036	115.222	-59.6365	-218.904	76.0582	-17.7552	-212.453	54.8845	-30.2653	-199.456	40.8974	-13.2368	-205.738	90.7871	22.9442	-205.062	83.5019	47.3676	-177.87	90.3386	32.5656	
65	0.541667	-153.417	57.0936	32.7242	-150.635	47.5742	-0.717967	-163.494	45.2248	-17.8957	-189.327	48.9801	-26.1006	-153.971	93.8991	-16.9014	-150.345	102.431	-41.3521	-144.284	112.954	-60.1109	-176.671	102.244	-23.8587	-182.18	112.369	-43.9736	-185.856	124.967	-59.4998	-195.522	93.2369	-22.012	-199.025	100.046	-42.8224	-203.096	107.292	-59.9496	-210.162	70.5041	-19.3585	-207.62	48.7483	-27.3321	-188.795	38.0541	-11.2135	-196.171	85.1255	25.192	-198.681	83.5501	46.5711	-171.539	86.1832	35.2289	
66	0.55	-146.17	50.2123	34.4182	-141.89	38.7806	2.92425	-157.964	40.1272	-18.6388	-184.037	42.1195	-27.8101	-146.542	86.8416	-14.9789	-142.093	94.9319	-37.7076	-136.282	103.848	-57.8889	-172.777	96.422	-22.7898	-171.141	104.43	-39.0821	-177.456	119.303	-61.8075	-191.083	87.4429	-20.4524	-195.587	94.4798	-39.714	-194.515	99.9125	-56.288	-206.97	67.6297	-13.8757	-200.261	46.7836	-27.1186	-189.9	29.9511	-10.6223	-189.005	81.3205	27.0685	-191.756	76.3573	47.8359	-164.011	80.6396	37.4394	
67	0.558333	-141.277	48.6861	35.4311	-138.198	36.6982	5.05829	-151.505	37.449	-19.7472	-178.797	40.9285	-24.9643	-146.669	84.8075	-15.9514	-140.046	91.3178	-36.9605	-134.098	99.7346	-56.8772	-170.766	91.543	-21.3698	-171.754	102.212	-42.195	-176.324	113.956	-60.7721	-188.339	84.557	-18.742	-191.044	91.3855	-41.8064	-191.335	97.6035	-59.119	-204.555	64.321	-17.0001	-198.725	43.5487	-28.5037	-183.991	28.5036	-13.008	-187.194	79.7243	27.3732	-186.903	73.216	47.9157	-160.878	77.3995	37.0819	
68	0.566667	-140.169	52.2318	37.1262	-133.27	40.468	6.62752	-144.568	40.5864	-14.0639	-167.626	39.1212	-30.3387	-144.498	87.8603	-20.009	-140.406	94.2175	-44.1643	-139.203	97.24	-63.2792	-170.818	93.8005	-23.4856	-173.02	100.026	-43.8159	-173.37	109.176	-66.6514	-186.373	85.8285	-18.2439	-190.3	91.3011	-41.3889	-194.219	95.9439	-58.9423	-206.697	69.3159	-15.1792	-199.249	53.1926	-33.7699	-184.811	34.4388	-29.4806	-186.048	82.0289	23.0273	-189.356	78.0695	48.7258	-162.288	80.1256	34.7428	
69	0.575	-142.361	60.7968	38.3023	-130.263	50.8001	8.65699	-133.976	47.4031	-14.7593	-149.202	41.7357	-33.458	-140.64	89.6526	-23.6956	-139.944	89.8373	-49.6844	-138.447	86.7623	-70.5299	-169.844	93.7906	-31.6056	-171.366	96.3685	-51.526	-171.259	96.9593	-79.6888	-189.249	86.3575	-23.4276	-191.293	89.3569	-44.1035	-189.14	90.3445	-65.5114	-206.55	74.3146	-16.9251	-202.524	63.8615	-37.4702	-195.211	45.9389	-46.8881	-187.857	86.6182	24.1029	-189.785	81.854	49.4072	-161.888	86.1997	33.4981	
